
<svg xmlns="http://www.w3.org/2000/svg" style="display:none">
  <defs>
    <g id="_icon-base" fill="none" stroke="currentColor" stroke-width="2" stroke-linecap="round" stroke-linejoin="round"></g>
  </defs>

  
  <symbol id="i-dashboard" viewBox="0 0 24 24" fill="none" stroke="currentColor" stroke-width="2" stroke-linecap="round" stroke-linejoin="round">
    <rect x="3" y="3" width="8" height="10" rx="1.5"></rect>
    <rect x="13" y="3" width="8" height="6" rx="1.5"></rect>
    <rect x="3" y="15" width="8" height="6" rx="1.5"></rect>
    <rect x="13" y="11" width="8" height="10" rx="1.5"></rect>
  </symbol>

  
  <symbol id="i-contacts" viewBox="0 0 24 24" fill="none" stroke="currentColor" stroke-width="2" stroke-linecap="round" stroke-linejoin="round">
    <circle cx="12" cy="9" r="3.5"></circle>
    <path d="M5 20c1.2-3.4 4-5 7-5s5.8 1.6 7 5"></path>
  </symbol>

  
  <symbol id="i-docs" viewBox="0 0 24 24" fill="none" stroke="currentColor" stroke-width="2" stroke-linecap="round" stroke-linejoin="round">
    <path d="M6 3h8l4 4v13a1 1 0 0 1-1 1H6a1 1 0 0 1-1-1V4a1 1 0 0 1 1-1z"></path>
    <path d="M14 3v4h4"></path>
    <path d="M8 12h8M8 16h6"></path>
  </symbol>

  
  <symbol id="i-pipelines" viewBox="0 0 24 24" fill="none" stroke="currentColor" stroke-width="2" stroke-linecap="round" stroke-linejoin="round">
    <rect x="3" y="5" width="5" height="14" rx="1"></rect>
    <rect x="9.5" y="5" width="5" height="10" rx="1"></rect>
    <rect x="16" y="5" width="5" height="6" rx="1"></rect>
  </symbol>

  
  <symbol id="i-inbox" viewBox="0 0 24 24" fill="none" stroke="currentColor" stroke-width="2" stroke-linecap="round" stroke-linejoin="round">
    <path d="M3 13l3-8h12l3 8"></path>
    <path d="M3 13v6a1 1 0 0 0 1 1h16a1 1 0 0 0 1-1v-6"></path>
    <path d="M3 13h5l1.5 2h5L16 13h5"></path>
  </symbol>

  
  <symbol id="i-workspace" viewBox="0 0 24 24" fill="none" stroke="currentColor" stroke-width="2" stroke-linecap="round" stroke-linejoin="round">
    <rect x="3" y="4" width="18" height="12" rx="1.5"></rect>
    <path d="M8 20l4-4 4 4"></path>
    <path d="M12 16v4"></path>
  </symbol>

  
  <symbol id="i-activity" viewBox="0 0 24 24" fill="none" stroke="currentColor" stroke-width="2" stroke-linecap="round" stroke-linejoin="round">
    <path d="M3 12h4l2-7 4 14 2-7h6"></path>
  </symbol>

  
  <symbol id="i-growth" viewBox="0 0 24 24" fill="none" stroke="currentColor" stroke-width="2" stroke-linecap="round" stroke-linejoin="round">
    <path d="M4 18l5-5 3 3 7-8"></path>
    <path d="M14 8h5v5"></path>
  </symbol>

  
  <symbol id="i-settings" viewBox="0 0 24 24" fill="none" stroke="currentColor" stroke-width="2" stroke-linecap="round" stroke-linejoin="round">
    <circle cx="12" cy="12" r="3"></circle>
    <path d="M19.4 14a1 1 0 0 0 .2 1.1l.1.1a2 2 0 1 1-2.8 2.8l-.1-.1a1 1 0 0 0-1.1-.2 1 1 0 0 0-.6.9V19a2 2 0 1 1-4 0v-.1a1 1 0 0 0-.7-.9 1 1 0 0 0-1.1.2l-.1.1a2 2 0 1 1-2.8-2.8l.1-.1a1 1 0 0 0 .2-1.1 1 1 0 0 0-.9-.6H5a2 2 0 1 1 0-4h.1a1 1 0 0 0 .9-.7 1 1 0 0 0-.2-1.1l-.1-.1a2 2 0 1 1 2.8-2.8l.1.1a1 1 0 0 0 1.1.2H10a1 1 0 0 0 .6-.9V5a2 2 0 1 1 4 0v.1a1 1 0 0 0 .6.9 1 1 0 0 0 1.1-.2l.1-.1a2 2 0 1 1 2.8 2.8l-.1.1a1 1 0 0 0-.2 1.1v.1a1 1 0 0 0 .9.6H19a2 2 0 1 1 0 4h-.1a1 1 0 0 0-.9.6z"></path>
  </symbol>

  
  <symbol id="i-click" viewBox="0 0 24 24" fill="none" stroke="currentColor" stroke-width="2" stroke-linecap="round" stroke-linejoin="round">
    <circle cx="12" cy="12" r="9"></circle>
    <circle cx="12" cy="12" r="4" fill="currentColor"></circle>
  </symbol>

  
  <symbol id="i-brand-assets" viewBox="0 0 24 24" fill="none" stroke="currentColor" stroke-width="2" stroke-linecap="round" stroke-linejoin="round">
    <path d="M3 8l9-5 9 5-9 5-9-5z"></path>
    <path d="M3 8v8l9 5 9-5V8"></path>
    <path d="M12 13v8"></path>
  </symbol>

  
  <symbol id="i-search" viewBox="0 0 24 24" fill="none" stroke="currentColor" stroke-width="2" stroke-linecap="round" stroke-linejoin="round">
    <circle cx="11" cy="11" r="6.5"></circle>
    <path d="M20 20l-4-4"></path>
  </symbol>

  
  <symbol id="i-plus" viewBox="0 0 24 24" fill="none" stroke="currentColor" stroke-width="2" stroke-linecap="round" stroke-linejoin="round">
    <path d="M12 5v14M5 12h14"></path>
  </symbol>

  
  <symbol id="i-check" viewBox="0 0 24 24" fill="none" stroke="currentColor" stroke-width="2" stroke-linecap="round" stroke-linejoin="round">
    <path d="M5 12.5l4.5 4.5L19 7"></path>
  </symbol>

  
  <symbol id="i-arrow-right" viewBox="0 0 24 24" fill="none" stroke="currentColor" stroke-width="2" stroke-linecap="round" stroke-linejoin="round">
    <path d="M5 12h14M13 6l6 6-6 6"></path>
  </symbol>

  
  <symbol id="i-arrow-ur" viewBox="0 0 24 24" fill="none" stroke="currentColor" stroke-width="2" stroke-linecap="round" stroke-linejoin="round">
    <path d="M7 17L17 7M9 7h8v8"></path>
  </symbol>

  
  <symbol id="i-trend-up" viewBox="0 0 24 24" fill="none" stroke="currentColor" stroke-width="2" stroke-linecap="round" stroke-linejoin="round">
    <path d="M3 17l6-6 4 4 8-9"></path>
    <path d="M14 6h7v7"></path>
  </symbol>

  
  <symbol id="i-bell" viewBox="0 0 24 24" fill="none" stroke="currentColor" stroke-width="2" stroke-linecap="round" stroke-linejoin="round">
    <path d="M6 16V11a6 6 0 1 1 12 0v5l1.5 2h-15z"></path>
    <path d="M10 20a2 2 0 0 0 4 0"></path>
  </symbol>

  
  <symbol id="i-calendar" viewBox="0 0 24 24" fill="none" stroke="currentColor" stroke-width="2" stroke-linecap="round" stroke-linejoin="round">
    <rect x="3" y="5" width="18" height="16" rx="1.5"></rect>
    <path d="M3 10h18M8 3v4M16 3v4"></path>
  </symbol>

  
  <symbol id="i-command" viewBox="0 0 24 24" fill="none" stroke="currentColor" stroke-width="2" stroke-linecap="round" stroke-linejoin="round">
    <path d="M9 6a3 3 0 1 0-3 3h12a3 3 0 1 0-3-3v12a3 3 0 1 0 3-3H6a3 3 0 1 0 3 3z"></path>
  </symbol>

  
  <symbol id="i-close" viewBox="0 0 24 24" fill="none" stroke="currentColor" stroke-width="2" stroke-linecap="round" stroke-linejoin="round">
    <path d="M6 6l12 12M18 6L6 18"></path>
  </symbol>

  
  <symbol id="i-chevron-down" viewBox="0 0 24 24" fill="none" stroke="currentColor" stroke-width="2" stroke-linecap="round" stroke-linejoin="round">
    <path d="M6 9l6 6 6-6"></path>
  </symbol>

  
  <symbol id="i-more" viewBox="0 0 24 24" fill="none" stroke="currentColor" stroke-width="2" stroke-linecap="round" stroke-linejoin="round">
    <circle cx="6" cy="12" r="1.2" fill="currentColor"></circle>
    <circle cx="12" cy="12" r="1.2" fill="currentColor"></circle>
    <circle cx="18" cy="12" r="1.2" fill="currentColor"></circle>
  </symbol>

  
  <symbol id="i-filter" viewBox="0 0 24 24" fill="none" stroke="currentColor" stroke-width="2" stroke-linecap="round" stroke-linejoin="round">
    <path d="M4 5h16l-6 8v6l-4-2v-4z"></path>
  </symbol>

  
  <symbol id="i-sparkle" viewBox="0 0 24 24" fill="none" stroke="currentColor" stroke-width="2" stroke-linecap="round" stroke-linejoin="round">
    <path d="M12 3l1.8 5.2L19 10l-5.2 1.8L12 17l-1.8-5.2L5 10l5.2-1.8z"></path>
    <path d="M19 16l.8 2.2L22 19l-2.2.8L19 22l-.8-2.2L16 19l2.2-.8z"></path>
  </symbol>
</svg>