<svg xmlns="http://www.w3.org/2000/svg" xmlns:xlink="http://www.w3.org/1999/xlink" width="586" zoomAndPan="magnify" viewBox="0 0 439.5 86.999996" height="116" preserveAspectRatio="xMidYMid meet" version="1.0"><defs><clipPath id="4f6d3c5f44"><path d="M 177 0.0507812 L 252 0.0507812 L 252 85 L 177 85 Z M 177 0.0507812 " clip-rule="nonzero"></path></clipPath><clipPath id="270ac100fc"><path d="M 0 0.0507812 L 67 0.0507812 L 67 85 L 0 85 Z M 0 0.0507812 " clip-rule="nonzero"></path></clipPath><clipPath id="4a3e5b01d1"><path d="M 380 0.0507812 L 439 0.0507812 L 439 85 L 380 85 Z M 380 0.0507812 " clip-rule="nonzero"></path></clipPath><clipPath id="18c92b27a5"><path d="M 255 22 L 316 22 L 316 86.949219 L 255 86.949219 Z M 255 22 " clip-rule="nonzero"></path></clipPath><clipPath id="5a928d374a"><path d="M 109 22 L 172 22 L 172 86.949219 L 109 86.949219 Z M 109 22 " clip-rule="nonzero"></path></clipPath><clipPath id="425f437b28"><path d="M 319 21 L 375 21 L 375 86.949219 L 319 86.949219 Z M 319 21 " clip-rule="nonzero"></path></clipPath><clipPath id="cc882a0428"><path d="M 177 0.0507812 L 252 0.0507812 L 252 85 L 177 85 Z M 177 0.0507812 " clip-rule="nonzero"></path></clipPath><clipPath id="1e1578e4a0"><path d="M 0 0.0507812 L 67 0.0507812 L 67 85 L 0 85 Z M 0 0.0507812 " clip-rule="nonzero"></path></clipPath><clipPath id="1d1ee4588b"><path d="M 380 0.0507812 L 439 0.0507812 L 439 85 L 380 85 Z M 380 0.0507812 " clip-rule="nonzero"></path></clipPath><clipPath id="54a01a6497"><path d="M 255 22 L 316 22 L 316 86.949219 L 255 86.949219 Z M 255 22 " clip-rule="nonzero"></path></clipPath><clipPath id="082bcc199c"><path d="M 109 22 L 172 22 L 172 86.949219 L 109 86.949219 Z M 109 22 " clip-rule="nonzero"></path></clipPath><clipPath id="940a841a1a"><path d="M 319 21 L 375 21 L 375 86.949219 L 319 86.949219 Z M 319 21 " clip-rule="nonzero"></path></clipPath></defs><g clip-path="url(#4f6d3c5f44)"><path fill="#fff" d="M 177.5 84.699219 L 177.5 0.386719 C 188.125 0.773438 199.101562 -0.125 209.691406 0.367188 C 224.257812 1.046875 237.988281 5.296875 245.753906 18.441406 C 254.355469 33.003906 253.597656 56.492188 243.546875 70.199219 C 228.417969 90.828125 199.453125 83.261719 177.5 84.699219 Z M 193.476562 70.941406 C 203.71875 70.585938 215.175781 72.496094 224.332031 66.960938 C 242.523438 55.964844 237.65625 14.585938 213.222656 14.585938 L 193.476562 14.585938 Z M 193.476562 70.941406 " fill-opacity="1" fill-rule="nonzero"></path></g><g clip-path="url(#270ac100fc)"><path fill="#fff" d="M 15.53125 55.410156 L 15.53125 84.699219 L 13.511719 84.277344 L 0 70.71875 L 0 0.386719 C 12.066406 0.863281 24.613281 -0.25 36.628906 0.367188 C 56.824219 1.402344 68.261719 11.941406 66.066406 32.949219 C 64.828125 44.765625 53.46875 55.410156 41.492188 55.410156 Z M 15.53125 14.585938 L 15.53125 40.988281 L 16.195312 41.65625 L 35.722656 41.65625 C 38.464844 41.65625 43.40625 40.371094 45.679688 38.742188 C 52.367188 33.941406 51.765625 20.390625 44.527344 16.429688 C 43.886719 16.082031 39.71875 14.585938 39.273438 14.585938 Z M 15.53125 14.585938 " fill-opacity="1" fill-rule="nonzero"></path></g><g clip-path="url(#4a3e5b01d1)"><path fill="#fff" d="M 395.382812 48.753906 L 420.457031 23.46875 L 429.078125 32.496094 L 414.96875 47.121094 L 438.871094 84.699219 L 422.230469 84.699219 L 404.464844 56.742188 L 395.382812 65.394531 L 395.382812 84.699219 L 380.738281 84.699219 L 380.738281 0.386719 L 394.71875 0.386719 L 395.382812 1.050781 Z M 395.382812 48.753906 " fill-opacity="1" fill-rule="nonzero"></path></g><g clip-path="url(#18c92b27a5)"><path fill="#fff" d="M 315.507812 58.960938 L 269.800781 58.960938 C 270.988281 65.871094 273.859375 72.195312 281.3125 73.851562 C 288.867188 75.53125 296.449219 72.871094 299.753906 65.617188 L 313.734375 65.617188 C 307.957031 91.210938 269.511719 93.222656 258.625 70.359375 C 253.441406 59.480469 254.261719 42.972656 261.628906 33.261719 C 273.558594 17.527344 300.339844 18.695312 310.539062 35.753906 C 314.777344 42.84375 315.382812 50.847656 315.507812 58.960938 Z M 300.421875 48.3125 C 298.507812 29.429688 271.742188 29.347656 270.246094 48.3125 Z M 300.421875 48.3125 " fill-opacity="1" fill-rule="nonzero"></path></g><g clip-path="url(#5a928d374a)"><path fill="#fff" d="M 137.917969 22.261719 C 162.199219 20.679688 175.503906 40.820312 170.273438 63.492188 C 162.6875 96.355469 112.265625 93.015625 109.617188 58.289062 C 108.171875 39.421875 118.101562 23.558594 137.917969 22.261719 Z M 137.457031 35.113281 C 117.660156 37.804688 120.621094 80.765625 145.796875 72.738281 C 152.171875 70.707031 155.503906 64.644531 156.148438 58.242188 C 157.433594 45.421875 152.359375 33.089844 137.457031 35.113281 Z M 137.457031 35.113281 " fill-opacity="1" fill-rule="nonzero"></path></g><g clip-path="url(#425f437b28)"><path fill="#fff" d="M 319.503906 65.171875 L 333.703125 65.171875 C 334.445312 74.859375 342.597656 76.1875 350.78125 75.375 C 356.472656 74.8125 362.855469 69.910156 357.859375 64.3125 C 354.660156 60.726562 342.648438 59.976562 337.691406 58.742188 C 325.875 55.800781 318.964844 49.878906 321.03125 36.75 C 324.128906 17.082031 368.089844 16.410156 372.195312 38.441406 C 372.351562 39.289062 373.019531 43.429688 372.085938 43.429688 L 359.21875 43.429688 C 358.242188 42.039062 358.332031 40.136719 357.546875 38.445312 C 353.144531 28.945312 329.542969 32.917969 336.160156 43.410156 C 338.679688 47.410156 350.402344 47.9375 355.007812 48.972656 C 364.238281 51.042969 373.21875 54.691406 374.027344 65.449219 C 375.34375 83.019531 357.820312 87.316406 343.667969 86.492188 C 330.605469 85.726562 319.210938 79.800781 319.503906 65.171875 Z M 319.503906 65.171875 " fill-opacity="1" fill-rule="nonzero"></path></g><path fill="#fff" d="M 107.832031 23.015625 L 107.832031 36.773438 C 99.8125 36.863281 90.703125 37.898438 87.648438 46.542969 C 87.433594 47.160156 86.53125 50.386719 86.53125 50.75 L 86.53125 84.699219 L 71.886719 84.699219 L 71.886719 23.460938 L 86.089844 23.460938 L 86.089844 34.109375 L 89.203125 29.460938 C 93.511719 23.917969 101.074219 21.765625 107.832031 23.015625 Z M 107.832031 23.015625 " fill-opacity="1" fill-rule="nonzero"></path><g clip-path="url(#cc882a0428)"><path fill="#fff" d="M 177.5 84.699219 L 177.5 0.386719 C 188.125 0.773438 199.101562 -0.125 209.691406 0.367188 C 224.257812 1.046875 237.988281 5.296875 245.753906 18.441406 C 254.355469 33.003906 253.597656 56.492188 243.546875 70.199219 C 228.417969 90.828125 199.453125 83.261719 177.5 84.699219 Z M 193.476562 70.941406 C 203.71875 70.585938 215.175781 72.496094 224.332031 66.960938 C 242.523438 55.964844 237.65625 14.585938 213.222656 14.585938 L 193.476562 14.585938 Z M 193.476562 70.941406 " fill-opacity="1" fill-rule="nonzero"></path></g><g clip-path="url(#1e1578e4a0)"><path fill="#fff" d="M 15.53125 55.410156 L 15.53125 84.699219 L 13.511719 84.277344 L 0 70.71875 L 0 0.386719 C 12.066406 0.863281 24.613281 -0.25 36.628906 0.367188 C 56.824219 1.402344 68.261719 11.941406 66.066406 32.949219 C 64.828125 44.765625 53.46875 55.410156 41.492188 55.410156 Z M 15.53125 14.585938 L 15.53125 40.988281 L 16.195312 41.65625 L 35.722656 41.65625 C 38.464844 41.65625 43.40625 40.371094 45.679688 38.742188 C 52.367188 33.941406 51.765625 20.390625 44.527344 16.429688 C 43.886719 16.082031 39.71875 14.585938 39.273438 14.585938 Z M 15.53125 14.585938 " fill-opacity="1" fill-rule="nonzero"></path></g><g clip-path="url(#1d1ee4588b)"><path fill="#fff" d="M 395.382812 48.753906 L 420.457031 23.46875 L 429.078125 32.496094 L 414.96875 47.121094 L 438.871094 84.699219 L 422.230469 84.699219 L 404.464844 56.742188 L 395.382812 65.394531 L 395.382812 84.699219 L 380.738281 84.699219 L 380.738281 0.386719 L 394.71875 0.386719 L 395.382812 1.050781 Z M 395.382812 48.753906 " fill-opacity="1" fill-rule="nonzero"></path></g><g clip-path="url(#54a01a6497)"><path fill="#fff" d="M 315.507812 58.960938 L 269.800781 58.960938 C 270.988281 65.871094 273.859375 72.195312 281.3125 73.851562 C 288.867188 75.53125 296.449219 72.871094 299.753906 65.617188 L 313.734375 65.617188 C 307.957031 91.210938 269.511719 93.222656 258.625 70.359375 C 253.441406 59.480469 254.261719 42.972656 261.628906 33.261719 C 273.558594 17.527344 300.339844 18.695312 310.539062 35.753906 C 314.777344 42.84375 315.382812 50.847656 315.507812 58.960938 Z M 300.421875 48.3125 C 298.507812 29.429688 271.742188 29.347656 270.246094 48.3125 Z M 300.421875 48.3125 " fill-opacity="1" fill-rule="nonzero"></path></g><g clip-path="url(#082bcc199c)"><path fill="#fff" d="M 137.917969 22.261719 C 162.199219 20.679688 175.503906 40.820312 170.273438 63.492188 C 162.6875 96.355469 112.265625 93.015625 109.617188 58.289062 C 108.171875 39.421875 118.101562 23.558594 137.917969 22.261719 Z M 137.457031 35.113281 C 117.660156 37.804688 120.621094 80.765625 145.796875 72.738281 C 152.171875 70.707031 155.503906 64.644531 156.148438 58.242188 C 157.433594 45.421875 152.359375 33.089844 137.457031 35.113281 Z M 137.457031 35.113281 " fill-opacity="1" fill-rule="nonzero"></path></g><g clip-path="url(#940a841a1a)"><path fill="#fff" d="M 319.503906 65.171875 L 333.703125 65.171875 C 334.445312 74.859375 342.597656 76.1875 350.78125 75.375 C 356.472656 74.8125 362.855469 69.910156 357.859375 64.3125 C 354.660156 60.726562 342.648438 59.976562 337.691406 58.742188 C 325.875 55.800781 318.964844 49.878906 321.03125 36.75 C 324.128906 17.082031 368.089844 16.410156 372.195312 38.441406 C 372.351562 39.289062 373.019531 43.429688 372.085938 43.429688 L 359.21875 43.429688 C 358.242188 42.039062 358.332031 40.136719 357.546875 38.445312 C 353.144531 28.945312 329.542969 32.917969 336.160156 43.410156 C 338.679688 47.410156 350.402344 47.9375 355.007812 48.972656 C 364.238281 51.042969 373.21875 54.691406 374.027344 65.449219 C 375.34375 83.019531 357.820312 87.316406 343.667969 86.492188 C 330.605469 85.726562 319.210938 79.800781 319.503906 65.171875 Z M 319.503906 65.171875 " fill-opacity="1" fill-rule="nonzero"></path></g><path fill="#fff" d="M 107.832031 23.015625 L 107.832031 36.773438 C 99.8125 36.863281 90.703125 37.898438 87.648438 46.542969 C 87.433594 47.160156 86.53125 50.386719 86.53125 50.75 L 86.53125 84.699219 L 71.886719 84.699219 L 71.886719 23.460938 L 86.089844 23.460938 L 86.089844 34.109375 L 89.203125 29.460938 C 93.511719 23.917969 101.074219 21.765625 107.832031 23.015625 Z M 107.832031 23.015625 " fill-opacity="1" fill-rule="nonzero"></path></svg>